<?xml version="1.0" standalone="no"?>
<!DOCTYPE svg PUBLIC "-//W3C//DTD SVG 20010904//EN"
 "http://www.w3.org/TR/2001/REC-SVG-20010904/DTD/svg10.dtd">
<svg version="1.0" xmlns="http://www.w3.org/2000/svg"
 width="1024.000000pt" height="1024.000000pt" viewBox="0 0 1024.000000 1024.000000"
 preserveAspectRatio="xMidYMid meet">
<metadata>
Created by potrace 1.14, written by Peter Selinger 2001-2017
</metadata>
<g transform="translate(0.000000,1024.000000) scale(0.100000,-0.100000)"
fill="#000000" stroke="none">
<path d="M1959 9606 c-2 -2 -40 -7 -85 -10 -79 -6 -169 -27 -209 -49 -11 -6
-23 -11 -26 -12 -21 -1 -145 -94 -188 -141 -45 -49 -121 -164 -113 -172 2 -1
-4 -15 -13 -30 -47 -83 -45 114 -42 -4092 1 -2164 5 -3942 8 -3950 8 -22 31
-104 31 -110 0 -3 7 -13 15 -22 9 -10 13 -18 10 -18 -17 0 65 -113 128 -176
51 -51 93 -82 149 -110 43 -21 83 -39 90 -41 6 -1 36 -9 66 -16 30 -8 88 -13
127 -13 40 1 73 -2 73 -6 0 -4 14 -3 30 2 17 5 30 5 30 0 0 -5 12 -5 28 -1 15
5 37 5 49 0 13 -5 25 -4 28 1 3 6 15 6 30 0 15 -6 27 -6 30 0 3 6 15 6 30 0
15 -6 27 -6 30 0 3 6 15 6 30 0 15 -6 27 -6 30 0 3 6 15 6 30 0 15 -6 27 -6
30 0 3 6 15 6 30 0 15 -6 27 -6 30 0 3 6 15 6 30 0 15 -6 27 -6 30 0 3 6 15 6
30 0 15 -6 27 -6 30 0 3 6 15 6 30 0 15 -6 27 -6 30 0 3 6 15 6 30 0 15 -6 27
-6 30 0 3 6 15 6 30 0 15 -6 27 -6 30 0 3 6 15 6 30 0 15 -6 27 -6 30 0 3 6
15 6 30 0 15 -6 27 -6 30 0 3 6 15 6 30 0 15 -6 27 -6 30 0 3 6 15 6 30 0 15
-6 27 -6 30 0 3 5 15 6 28 1 12 -5 32 -5 44 0 13 5 25 4 28 -1 3 -6 15 -6 29
0 13 5 27 6 30 3 8 -8 68 -8 88 -1 8 4 21 2 28 -2 7 -5 24 -4 36 0 14 6 26 5
29 0 3 -5 18 -5 35 0 16 5 32 5 35 0 3 -5 19 -5 35 0 18 5 30 5 30 0 0 -6 10
-6 23 -1 13 5 30 5 37 1 8 -5 21 -5 30 0 9 5 22 5 30 0 7 -4 24 -4 36 0 14 6
26 5 29 0 3 -5 18 -5 35 0 16 5 32 5 35 0 3 -5 19 -5 35 0 18 5 30 5 30 0 0
-5 10 -6 23 -2 12 4 37 6 55 4 17 -1 39 -2 47 -2 8 0 22 0 30 0 8 0 22 0 30 0
8 0 21 0 28 0 6 0 112 0 233 -1 122 -1 227 2 233 5 6 4 11 3 11 -3 0 -6 11 -6
30 -1 19 5 30 5 30 -1 0 -6 4 -7 10 -4 16 10 80 12 80 3 0 -5 6 -6 13 -1 6 4
32 8 57 9 73 2 243 14 265 19 11 3 43 7 70 9 51 5 96 11 163 22 20 3 46 7 57
9 11 1 56 10 100 19 44 9 89 18 100 20 17 4 49 11 125 30 107 27 151 39 183
51 20 8 39 15 42 15 16 -1 62 14 74 24 8 6 17 10 20 9 8 -3 80 16 100 27 16 9
112 44 121 45 3 1 14 6 25 12 11 6 22 11 25 11 18 1 262 110 275 123 5 5 17 9
26 9 10 0 19 3 21 8 2 4 38 24 80 46 154 77 460 268 565 352 23 19 46 34 51
34 6 0 12 4 14 8 2 4 23 23 48 42 25 19 47 37 50 40 3 3 32 27 65 55 33 27 70
60 82 72 12 13 25 23 29 23 7 0 309 303 364 365 20 22 56 65 80 95 25 30 48
57 51 60 3 3 42 52 85 110 138 181 294 423 380 590 22 41 43 78 47 81 5 3 8 8
7 10 -1 2 18 47 43 99 72 154 97 210 97 216 0 3 7 20 15 37 18 39 86 225 89
240 1 7 4 17 8 22 3 6 9 26 13 45 4 19 11 40 15 45 5 6 9 13 9 18 1 4 1 8 2
10 0 1 2 9 4 17 2 8 11 42 21 75 9 33 17 67 19 75 2 8 15 63 30 122 14 59 28
120 30 135 2 16 6 37 8 48 3 11 8 40 12 65 4 25 9 54 11 65 6 31 13 84 19 150
4 33 8 67 10 75 25 91 25 899 0 939 -2 4 -6 35 -9 71 -7 73 -13 123 -21 160
-5 28 -15 82 -20 120 -3 14 -7 36 -10 50 -3 14 -8 39 -10 55 -3 17 -8 38 -11
47 -3 9 -7 25 -9 35 -4 19 -22 96 -30 126 -3 9 -7 25 -9 35 -3 9 -14 49 -26
87 -11 39 -22 77 -24 85 -43 175 -279 715 -383 877 -18 29 -33 54 -33 57 0 15
-235 366 -270 403 -11 12 -20 26 -20 32 0 5 -3 11 -7 13 -5 2 -24 24 -43 49
-100 131 -179 219 -355 394 -211 209 -310 296 -505 440 -52 38 -96 73 -98 77
-2 5 -8 8 -14 8 -6 0 -31 15 -57 33 -174 124 -548 325 -766 412 -22 9 -51 21
-65 27 -89 39 -287 106 -435 148 -78 22 -220 58 -255 65 -32 6 -68 13 -145 30
-48 10 -77 14 -126 20 -25 3 -56 8 -70 10 -13 3 -49 8 -79 11 -30 3 -68 7 -85
10 -59 7 -182 15 -278 19 -54 1 -100 5 -103 8 -3 3 -19 1 -35 -3 -16 -5 -31
-5 -34 0 -3 5 -16 5 -30 0 -15 -6 -27 -6 -30 0 -3 6 -15 6 -30 0 -15 -6 -27
-6 -30 0 -3 6 -15 6 -30 0 -15 -6 -27 -6 -30 0 -3 6 -15 6 -30 0 -15 -6 -27
-6 -30 0 -3 6 -15 6 -30 0 -15 -6 -27 -6 -30 0 -3 6 -15 6 -30 0 -15 -6 -27
-6 -30 0 -3 6 -15 6 -30 0 -15 -6 -27 -6 -30 0 -3 6 -15 6 -30 0 -15 -6 -27
-6 -30 0 -3 6 -15 6 -30 0 -15 -6 -27 -6 -30 0 -3 6 -15 6 -29 0 -13 -5 -27
-6 -30 -3 -8 8 -68 8 -88 1 -8 -4 -21 -2 -28 2 -7 5 -24 4 -36 0 -14 -6 -26
-5 -29 0 -3 5 -18 5 -35 0 -16 -5 -32 -5 -35 0 -3 5 -19 5 -35 0 -18 -5 -30
-5 -30 0 0 6 -10 6 -23 1 -13 -5 -30 -5 -37 -1 -8 5 -21 5 -30 0 -9 -5 -22 -5
-30 0 -7 4 -24 4 -36 0 -14 -6 -26 -5 -29 0 -3 5 -18 5 -35 0 -16 -5 -32 -5
-35 0 -3 5 -19 5 -35 0 -17 -5 -30 -5 -30 0 0 5 -7 7 -15 4 -22 -9 -105 -10
-105 -2 0 4 -13 3 -30 -2 -17 -5 -30 -5 -30 0 0 5 -12 5 -28 1 -15 -5 -37 -5
-49 0 -13 5 -25 4 -28 -1 -3 -6 -15 -6 -30 0 -15 6 -27 6 -30 0 -3 -6 -15 -6
-30 0 -15 6 -27 6 -30 0 -3 -6 -15 -6 -30 0 -15 6 -27 6 -30 0 -3 -6 -15 -6
-30 0 -15 6 -27 6 -30 0 -3 -6 -15 -6 -30 0 -15 6 -27 6 -30 0 -3 -6 -15 -6
-30 0 -15 6 -27 6 -30 0 -3 -6 -15 -6 -30 0 -15 6 -27 6 -30 0 -3 -6 -15 -6
-30 0 -15 6 -27 6 -30 0 -3 -6 -15 -6 -30 0 -15 6 -27 6 -30 0 -3 -6 -15 -6
-30 0 -15 6 -27 6 -30 0 -3 -6 -15 -6 -30 0 -15 6 -27 6 -30 0 -3 -6 -15 -6
-30 0 -15 6 -27 6 -30 0 -3 -6 -15 -6 -30 0 -15 6 -27 6 -30 0 -3 -6 -15 -6
-30 0 -15 6 -27 6 -30 0 -3 -5 -15 -6 -28 -1 -12 5 -32 5 -44 0 -13 -5 -25 -4
-28 1 -3 6 -15 6 -29 0 -14 -5 -27 -5 -33 1 -5 5 -11 7 -14 5z m704 -1286 c28
3 80 3 115 0 34 -3 62 -3 62 0 0 4 23 4 50 0 28 -4 53 -3 56 2 3 5 9 6 14 3 5
-3 30 -5 57 -5 62 1 71 1 174 0 48 -1 90 0 95 1 5 1 11 1 14 0 14 -5 130 -5
130 0 0 3 24 3 53 -1 28 -3 71 -3 95 1 23 3 44 3 47 1 6 -6 125 -8 125 -2 0 3
45 3 101 0 55 -3 102 -3 104 -1 6 5 125 7 125 1 0 -6 109 -4 115 2 3 2 29 1
60 -2 30 -3 55 -2 55 3 0 4 4 6 8 3 8 -5 28 -6 157 -7 88 0 242 -7 305 -13
118 -12 146 -15 180 -21 19 -3 49 -8 65 -11 17 -3 37 -7 45 -9 8 -2 35 -7 60
-10 24 -4 48 -9 52 -11 4 -3 16 -7 25 -9 10 -2 38 -8 63 -14 25 -7 55 -14 67
-16 82 -18 395 -133 405 -149 4 -6 8 -7 8 -2 0 4 11 1 25 -8 14 -9 25 -14 25
-11 0 17 351 -180 467 -261 34 -24 66 -44 71 -44 6 0 12 -4 14 -8 2 -4 31 -29
65 -55 34 -26 68 -53 75 -60 7 -6 31 -25 53 -42 52 -38 341 -327 385 -385 19
-25 37 -47 40 -50 3 -3 28 -34 55 -70 27 -36 53 -66 57 -68 4 -2 8 -8 8 -14 0
-5 20 -37 44 -71 64 -91 131 -206 202 -345 35 -67 64 -124 64 -127 0 -3 12
-31 26 -62 14 -32 30 -69 34 -83 4 -14 24 -69 43 -122 20 -54 33 -98 30 -98
-3 0 -1 -6 5 -13 6 -7 12 -24 14 -37 2 -14 6 -29 9 -35 6 -9 20 -65 34 -132 3
-13 7 -33 10 -45 6 -24 20 -99 30 -153 2 -16 7 -41 10 -55 3 -14 7 -50 10 -80
3 -30 8 -75 11 -100 2 -25 6 -96 8 -157 3 -62 7 -117 10 -122 4 -5 2 -12 -3
-15 -6 -4 -6 -18 -1 -36 5 -17 6 -30 2 -30 -4 0 -7 -33 -7 -73 -1 -70 -11
-216 -19 -267 -2 -14 -7 -47 -11 -73 -4 -27 -8 -59 -11 -70 -17 -91 -24 -125
-28 -146 -11 -49 -58 -226 -62 -233 -3 -4 -7 -16 -9 -25 -9 -51 -101 -300
-117 -317 -4 -6 -8 -18 -8 -28 0 -10 -4 -18 -10 -18 -5 0 -10 -6 -10 -14 0
-31 -157 -318 -237 -433 -23 -35 -43 -67 -43 -72 0 -5 -3 -11 -8 -13 -4 -1
-25 -28 -47 -58 -80 -111 -201 -248 -329 -375 -146 -144 -151 -149 -286 -253
-52 -40 -103 -80 -113 -88 -9 -8 -19 -14 -22 -14 -3 0 -33 -20 -68 -43 -113
-79 -402 -237 -433 -237 -7 0 -14 -4 -16 -8 -6 -15 -387 -156 -446 -165 -9 -1
-23 -6 -30 -11 -7 -4 -16 -5 -19 -2 -3 3 -14 1 -23 -4 -10 -5 -33 -12 -51 -15
-19 -3 -63 -12 -99 -20 -36 -8 -77 -16 -92 -17 -16 -1 -28 -5 -28 -8 0 -3 -15
-5 -33 -6 -17 0 -54 -4 -82 -8 -92 -12 -139 -16 -265 -22 -152 -7 -135 -6
-195 -5 -27 0 -57 1 -65 0 -8 0 -33 0 -55 0 -22 0 -47 0 -55 0 -16 0 -103 0
-135 1 -11 0 -40 -1 -65 -1 -25 0 -51 -1 -57 0 -49 1 -230 2 -238 1 -6 -2 -12
-2 -15 -1 -14 5 -130 5 -130 0 0 -3 -24 -3 -52 1 -29 3 -72 3 -96 -1 -23 -3
-44 -3 -47 -1 -6 6 -125 8 -125 2 0 -4 -108 -3 -195 1 -5 1 -35 1 -65 0 -30 0
-62 0 -70 0 -8 1 -31 1 -50 0 -19 0 -57 -1 -84 -1 -28 -1 -52 -3 -56 -5 -3 -2
-12 0 -18 4 -7 4 -33 5 -57 1 -25 -4 -47 -5 -50 -2 -3 3 -24 5 -48 5 l-42 -1
2 86 c1 47 4 91 7 99 3 7 1 13 -4 13 -5 0 -5 13 0 30 5 18 5 32 -1 35 -5 4 -5
14 1 25 6 12 7 21 0 25 -6 3 -6 15 0 30 5 14 5 27 0 30 -5 3 -5 18 0 35 5 17
5 30 0 30 -5 0 -5 13 0 29 4 15 4 34 0 42 -5 7 -5 20 0 28 4 8 4 25 -1 38 -5
13 -5 23 -1 23 4 0 7 23 7 50 0 28 -3 50 -7 50 -4 0 -3 14 2 30 5 17 5 30 0
30 -5 0 -5 13 0 29 4 15 4 34 0 42 -5 7 -5 20 0 29 5 9 5 22 0 30 -5 8 -5 21
0 30 5 9 5 22 0 30 -5 8 -5 21 0 30 5 9 5 22 0 30 -5 8 -5 21 0 30 5 9 5 22 0
30 -5 8 -5 21 0 30 5 9 5 22 0 30 -5 8 -5 21 0 30 5 9 5 22 0 30 -5 8 -5 21 0
30 5 9 5 22 0 30 -5 8 -5 21 0 30 5 9 5 22 0 30 -5 8 -5 21 0 30 5 9 5 22 0
30 -5 8 -5 21 0 30 5 9 5 22 0 30 -5 8 -5 21 0 30 5 9 5 22 0 30 -5 8 -5 21 0
30 5 9 5 22 0 30 -5 8 -5 21 0 30 5 9 5 22 0 30 -5 8 -5 21 0 30 5 9 5 22 0
30 -5 8 -5 21 0 30 5 9 5 22 0 30 -5 8 -5 21 0 30 5 9 5 22 0 30 -5 8 -5 21 0
30 5 9 5 22 0 30 -5 8 -5 21 0 30 5 9 5 22 0 30 -5 8 -5 21 0 30 5 9 5 22 0
30 -5 8 -5 21 0 30 5 9 5 22 0 30 -5 8 -5 21 0 30 5 9 5 22 0 30 -5 8 -5 21 0
30 5 9 5 22 0 30 -5 8 -5 21 0 30 5 9 5 22 0 30 -5 8 -5 21 0 30 5 9 5 22 0
30 -5 8 -5 21 0 30 5 9 5 22 0 30 -5 8 -5 21 0 30 5 9 5 22 0 30 -5 8 -5 21 0
30 5 9 5 22 0 30 -5 8 -5 21 0 30 5 9 5 22 0 30 -5 8 -5 21 0 30 5 9 5 22 0
30 -5 8 -5 21 0 30 5 9 5 22 0 30 -5 8 -5 21 0 30 5 9 5 22 0 30 -5 8 -5 21 0
30 5 9 5 22 0 30 -5 8 -5 21 0 30 5 9 5 22 0 30 -5 8 -5 21 0 30 5 9 5 22 0
30 -5 8 -5 21 0 30 5 9 5 22 0 30 -5 8 -5 21 0 30 5 9 5 22 0 30 -5 8 -5 21 0
30 5 9 5 22 0 30 -5 8 -5 21 0 30 5 9 5 22 0 30 -5 8 -5 21 0 30 5 9 5 22 0
30 -5 8 -5 21 0 30 5 9 5 22 0 30 -5 8 -5 21 0 30 5 9 5 22 0 30 -5 8 -5 21 0
30 5 9 5 22 0 30 -5 8 -5 21 0 30 5 9 5 22 0 30 -5 8 -5 21 0 30 5 9 5 22 0
30 -5 8 -5 21 0 30 5 9 5 22 0 30 -5 8 -5 21 0 30 5 9 5 22 0 30 -5 8 -5 21 0
30 5 9 5 22 0 30 -5 8 -5 21 0 30 5 9 5 22 0 30 -5 8 -5 21 0 30 5 9 5 22 0
30 -5 8 -5 21 0 30 5 9 5 22 0 30 -5 8 -5 21 0 30 5 9 5 22 0 30 -5 8 -5 21 0
30 5 9 5 22 0 30 -5 8 -5 21 0 30 5 9 5 22 0 30 -5 8 -5 21 0 30 5 9 5 22 0
30 -5 8 -5 21 0 30 5 9 5 22 0 30 -5 8 -5 21 0 30 5 9 5 22 0 30 -5 8 -5 21 0
30 5 9 5 22 0 30 -5 8 -5 21 0 30 5 9 5 22 0 30 -5 8 -5 21 0 30 5 9 5 22 0
30 -5 8 -5 21 0 30 5 9 5 22 0 30 -5 8 -5 21 0 30 5 9 5 22 0 30 -5 8 -5 21 0
30 5 9 5 22 0 30 -5 8 -5 21 0 30 5 9 5 22 0 30 -5 8 -5 21 0 30 5 9 5 22 0
30 -5 8 -5 21 0 30 5 9 5 22 0 30 -5 8 -5 21 0 30 5 9 5 22 0 30 -5 8 -5 21 0
30 5 9 5 22 0 30 -5 8 -5 21 0 30 5 9 5 22 0 30 -5 8 -5 21 0 30 5 9 5 22 0
30 -5 8 -5 21 0 30 5 9 5 22 0 30 -5 8 -5 21 0 30 5 9 5 22 0 30 -5 8 -5 21 0
30 5 9 5 22 0 30 -5 8 -5 21 0 30 5 9 5 22 0 30 -5 8 -5 21 0 30 5 9 5 22 0
30 -5 8 -5 21 0 30 5 9 5 22 0 30 -5 8 -5 21 0 30 5 9 5 22 0 30 -5 8 -5 21 0
30 5 9 5 22 0 30 -5 8 -5 21 0 30 5 9 5 22 0 30 -5 8 -5 21 0 30 5 9 5 22 0
29 -4 8 -4 27 0 42 5 16 5 29 0 29 -5 0 -5 13 0 30 5 17 6 30 2 30 -8 0 -6 86
3 99 3 5 1 12 -4 15 -6 4 -6 18 -1 36 5 17 5 30 0 30 -5 0 -5 13 0 28 4 16 4
35 -1 43 -4 8 -4 21 1 29 4 7 4 24 -1 37 -5 14 -5 23 1 23 6 0 6 9 1 23 -5 12
-5 32 0 44 5 13 4 25 -1 28 -5 3 -5 18 0 35 5 17 5 30 0 30 -5 0 -5 13 0 28 4
16 4 35 -1 43 -4 8 -4 21 1 29 5 8 5 21 -1 31 -5 11 -5 20 0 23 5 3 7 15 4 25
-4 15 1 20 19 23 12 2 24 1 26 -2 1 -3 26 -3 55 0z"/>
</g>
</svg>
